<mxfile host="app.diagrams.net" modified="2021-06-19T03:35:53.451Z" agent="5.0 (Windows NT 10.0; Win64; x64) AppleWebKit/537.36 (KHTML, like Gecko) Chrome/91.0.4472.77 Safari/537.36" etag="hNMkqvr8sRCSk2Mtj-S7" version="14.7.3" type="github">
  <diagram name="Page-1" id="822b0af5-4adb-64df-f703-e8dfc1f81529">
    <mxGraphModel dx="1488" dy="1654" grid="1" gridSize="10" guides="1" tooltips="1" connect="1" arrows="1" fold="1" page="1" pageScale="1" pageWidth="1100" pageHeight="850" background="none" math="0" shadow="0">
      <root>
        <mxCell id="0" />
        <mxCell id="1" parent="0" />
        <mxCell id="iW3A5-s4BTb5mlIYESg_-6" style="edgeStyle=orthogonalEdgeStyle;rounded=0;orthogonalLoop=1;jettySize=auto;html=1;entryX=0.5;entryY=0;entryDx=0;entryDy=0;fontColor=#fff;" edge="1" parent="1">
          <mxGeometry relative="1" as="geometry">
            <mxPoint x="550" y="-591" as="sourcePoint" />
            <mxPoint x="550" y="-531" as="targetPoint" />
            <Array as="points">
              <mxPoint x="550" y="-574" />
              <mxPoint x="550" y="-574" />
            </Array>
          </mxGeometry>
        </mxCell>
        <mxCell id="iW3A5-s4BTb5mlIYESg_-2" value="" style="shape=image;verticalLabelPosition=bottom;labelBackgroundColor=#ffffff;verticalAlign=top;aspect=fixed;imageAspect=0;image=https://cdn1.iconfinder.com/data/icons/cloud-computing-glyph-silhouettes/300/20351071Untitled-3-512.png;" vertex="1" parent="1">
          <mxGeometry x="470" y="-730" width="160" height="160" as="geometry" />
        </mxCell>
        <mxCell id="iW3A5-s4BTb5mlIYESg_-3" value="&lt;font style=&quot;font-size: 17px&quot;&gt;Internet&lt;/font&gt;" style="rounded=0;whiteSpace=wrap;html=1;fillColor=none;strokeColor=none;fontColor=#fff;" vertex="1" parent="1">
          <mxGeometry x="490" y="-660" width="120" height="40" as="geometry" />
        </mxCell>
        <mxCell id="iW3A5-s4BTb5mlIYESg_-7" style="edgeStyle=orthogonalEdgeStyle;rounded=0;orthogonalLoop=1;jettySize=auto;html=1;exitX=1;exitY=0.25;exitDx=0;exitDy=0;fontColor=#fff;" edge="1" parent="1" source="iW3A5-s4BTb5mlIYESg_-4">
          <mxGeometry relative="1" as="geometry">
            <mxPoint x="800" y="-485.3529411764706" as="targetPoint" />
          </mxGeometry>
        </mxCell>
        <mxCell id="iW3A5-s4BTb5mlIYESg_-4" value="" style="image;html=1;image=img/lib/clip_art/networking/Wireless_Router_128x128.png;fontColor=#fff;fillColor=none;" vertex="1" parent="1">
          <mxGeometry x="490" y="-510" width="120" height="100" as="geometry" />
        </mxCell>
        <mxCell id="iW3A5-s4BTb5mlIYESg_-13" style="edgeStyle=orthogonalEdgeStyle;rounded=0;orthogonalLoop=1;jettySize=auto;html=1;fontColor=#fff;" edge="1" parent="1" source="iW3A5-s4BTb5mlIYESg_-9">
          <mxGeometry relative="1" as="geometry">
            <mxPoint x="841.2" y="-590" as="targetPoint" />
          </mxGeometry>
        </mxCell>
        <mxCell id="iW3A5-s4BTb5mlIYESg_-9" value="" style="points=[];aspect=fixed;html=1;align=center;shadow=0;dashed=0;image;image=img/lib/allied_telesis/computer_and_terminals/Personal_Computer_with_Server.svg;fontColor=#fff;fillColor=none;" vertex="1" parent="1">
          <mxGeometry x="810" y="-520" width="62.400000000000006" height="62.400000000000006" as="geometry" />
        </mxCell>
        <mxCell id="iW3A5-s4BTb5mlIYESg_-10" value="&lt;font color=&quot;#000000&quot;&gt;Server&lt;/font&gt;" style="rounded=0;whiteSpace=wrap;html=1;fontColor=#fff;fillColor=none;" vertex="1" parent="1">
          <mxGeometry x="789" y="-455" width="120" height="35" as="geometry" />
        </mxCell>
        <mxCell id="iW3A5-s4BTb5mlIYESg_-11" value="" style="pointerEvents=1;shadow=0;dashed=0;html=1;strokeColor=none;fillColor=#505050;labelPosition=center;verticalLabelPosition=bottom;verticalAlign=top;outlineConnect=0;align=center;shape=mxgraph.office.devices.printer;fontColor=#fff;" vertex="1" parent="1">
          <mxGeometry x="810" y="-640" width="56" height="47" as="geometry" />
        </mxCell>
        <mxCell id="iW3A5-s4BTb5mlIYESg_-14" value="&lt;font color=&quot;#000000&quot;&gt;Shared Printer&lt;/font&gt;" style="rounded=0;whiteSpace=wrap;html=1;fontColor=#fff;fillColor=none;" vertex="1" parent="1">
          <mxGeometry x="789" y="-680" width="120" height="35" as="geometry" />
        </mxCell>
        <mxCell id="iW3A5-s4BTb5mlIYESg_-27" style="edgeStyle=orthogonalEdgeStyle;rounded=0;orthogonalLoop=1;jettySize=auto;html=1;fontColor=#fff;" edge="1" parent="1" source="iW3A5-s4BTb5mlIYESg_-15">
          <mxGeometry relative="1" as="geometry">
            <mxPoint x="360" y="-450" as="targetPoint" />
          </mxGeometry>
        </mxCell>
        <mxCell id="iW3A5-s4BTb5mlIYESg_-15" value="" style="points=[];aspect=fixed;html=1;align=center;shadow=0;dashed=0;image;image=img/lib/allied_telesis/computer_and_terminals/Personal_Computer_Wireless.svg;fontColor=#fff;fillColor=none;" vertex="1" parent="1">
          <mxGeometry x="250" y="-600" width="63" height="64.2" as="geometry" />
        </mxCell>
        <mxCell id="iW3A5-s4BTb5mlIYESg_-17" value="&lt;font color=&quot;#000000&quot;&gt;Client&amp;nbsp; 1&lt;/font&gt;" style="rounded=0;whiteSpace=wrap;html=1;fontColor=#fff;fillColor=none;" vertex="1" parent="1">
          <mxGeometry x="221.5" y="-530" width="120" height="35" as="geometry" />
        </mxCell>
        <mxCell id="iW3A5-s4BTb5mlIYESg_-29" style="edgeStyle=orthogonalEdgeStyle;rounded=0;orthogonalLoop=1;jettySize=auto;html=1;entryX=0;entryY=0;entryDx=0;entryDy=0;fontColor=#fff;" edge="1" parent="1" source="iW3A5-s4BTb5mlIYESg_-18" target="iW3A5-s4BTb5mlIYESg_-25">
          <mxGeometry relative="1" as="geometry" />
        </mxCell>
        <mxCell id="iW3A5-s4BTb5mlIYESg_-18" value="" style="points=[];aspect=fixed;html=1;align=center;shadow=0;dashed=0;image;image=img/lib/allied_telesis/computer_and_terminals/Personal_Computer_Wireless.svg;fontColor=#fff;fillColor=none;" vertex="1" parent="1">
          <mxGeometry x="98.5" y="-512.5" width="63" height="64.2" as="geometry" />
        </mxCell>
        <mxCell id="iW3A5-s4BTb5mlIYESg_-19" value="&lt;font color=&quot;#000000&quot;&gt;Client 2&amp;nbsp;&lt;/font&gt;" style="rounded=0;whiteSpace=wrap;html=1;fontColor=#fff;fillColor=none;" vertex="1" parent="1">
          <mxGeometry x="70" y="-442.5" width="120" height="35" as="geometry" />
        </mxCell>
        <mxCell id="iW3A5-s4BTb5mlIYESg_-34" style="edgeStyle=orthogonalEdgeStyle;rounded=0;orthogonalLoop=1;jettySize=auto;html=1;entryX=0;entryY=0.5;entryDx=0;entryDy=0;fontColor=#fff;" edge="1" parent="1" source="iW3A5-s4BTb5mlIYESg_-20" target="iW3A5-s4BTb5mlIYESg_-25">
          <mxGeometry relative="1" as="geometry" />
        </mxCell>
        <mxCell id="iW3A5-s4BTb5mlIYESg_-20" value="" style="points=[];aspect=fixed;html=1;align=center;shadow=0;dashed=0;image;image=img/lib/allied_telesis/computer_and_terminals/Personal_Computer_Wireless.svg;fontColor=#fff;fillColor=none;" vertex="1" parent="1">
          <mxGeometry x="258.5" y="-407.5" width="63" height="64.2" as="geometry" />
        </mxCell>
        <mxCell id="iW3A5-s4BTb5mlIYESg_-21" value="&lt;font color=&quot;#000000&quot;&gt;Client&amp;nbsp; 3&lt;/font&gt;" style="rounded=0;whiteSpace=wrap;html=1;fontColor=#fff;fillColor=none;" vertex="1" parent="1">
          <mxGeometry x="230" y="-337.5" width="120" height="35" as="geometry" />
        </mxCell>
        <mxCell id="iW3A5-s4BTb5mlIYESg_-24" value="&lt;font color=&quot;#000000&quot;&gt;Router&amp;nbsp;&lt;/font&gt;" style="rounded=0;whiteSpace=wrap;html=1;fontColor=#fff;fillColor=none;" vertex="1" parent="1">
          <mxGeometry x="506" y="-400" width="90" height="35" as="geometry" />
        </mxCell>
        <mxCell id="iW3A5-s4BTb5mlIYESg_-28" style="edgeStyle=orthogonalEdgeStyle;rounded=0;orthogonalLoop=1;jettySize=auto;html=1;fontColor=#fff;" edge="1" parent="1" source="iW3A5-s4BTb5mlIYESg_-25">
          <mxGeometry relative="1" as="geometry">
            <mxPoint x="480" y="-442" as="targetPoint" />
          </mxGeometry>
        </mxCell>
        <mxCell id="iW3A5-s4BTb5mlIYESg_-25" value="" style="aspect=fixed;perimeter=ellipsePerimeter;html=1;align=center;shadow=0;dashed=0;spacingTop=3;image;image=img/lib/active_directory/wiring_hub.svg;fontColor=#fff;fillColor=none;" vertex="1" parent="1">
          <mxGeometry x="320" y="-459" width="72.06" height="49" as="geometry" />
        </mxCell>
        <mxCell id="iW3A5-s4BTb5mlIYESg_-35" style="edgeStyle=orthogonalEdgeStyle;rounded=0;orthogonalLoop=1;jettySize=auto;html=1;entryX=0.583;entryY=0.976;entryDx=0;entryDy=0;entryPerimeter=0;fontColor=#fff;" edge="1" parent="1" source="iW3A5-s4BTb5mlIYESg_-31" target="iW3A5-s4BTb5mlIYESg_-25">
          <mxGeometry relative="1" as="geometry" />
        </mxCell>
        <mxCell id="iW3A5-s4BTb5mlIYESg_-31" value="" style="pointerEvents=1;shadow=0;dashed=0;html=1;strokeColor=none;fillColor=#505050;labelPosition=center;verticalLabelPosition=bottom;verticalAlign=top;outlineConnect=0;align=center;shape=mxgraph.office.devices.printer;fontColor=#fff;" vertex="1" parent="1">
          <mxGeometry x="91" y="-230" width="56" height="47" as="geometry" />
        </mxCell>
        <mxCell id="iW3A5-s4BTb5mlIYESg_-32" value="&lt;font color=&quot;#000000&quot;&gt;Shared Printer 2&lt;/font&gt;" style="rounded=0;whiteSpace=wrap;html=1;fontColor=#fff;fillColor=none;" vertex="1" parent="1">
          <mxGeometry x="70" y="-270" width="120" height="35" as="geometry" />
        </mxCell>
        <mxCell id="iW3A5-s4BTb5mlIYESg_-38" style="edgeStyle=orthogonalEdgeStyle;rounded=0;orthogonalLoop=1;jettySize=auto;html=1;entryX=1;entryY=0.75;entryDx=0;entryDy=0;fontColor=#fff;" edge="1" parent="1" source="iW3A5-s4BTb5mlIYESg_-36" target="iW3A5-s4BTb5mlIYESg_-4">
          <mxGeometry relative="1" as="geometry" />
        </mxCell>
        <mxCell id="iW3A5-s4BTb5mlIYESg_-36" value="" style="image;html=1;image=img/lib/clip_art/networking/Wireless_Router_N_128x128.png;fontColor=#fff;fillColor=none;" vertex="1" parent="1">
          <mxGeometry x="786" y="-360" width="80" height="80" as="geometry" />
        </mxCell>
        <mxCell id="iW3A5-s4BTb5mlIYESg_-37" value="&lt;font color=&quot;#000000&quot;&gt;Free Wi-Fi&lt;/font&gt;" style="rounded=0;whiteSpace=wrap;html=1;fontColor=#fff;fillColor=none;" vertex="1" parent="1">
          <mxGeometry x="786" y="-270" width="90" height="35" as="geometry" />
        </mxCell>
        <mxCell id="iW3A5-s4BTb5mlIYESg_-50" style="edgeStyle=orthogonalEdgeStyle;rounded=0;orthogonalLoop=1;jettySize=auto;html=1;entryX=0.75;entryY=0;entryDx=0;entryDy=0;fontColor=#fff;" edge="1" parent="1" source="iW3A5-s4BTb5mlIYESg_-39" target="iW3A5-s4BTb5mlIYESg_-36">
          <mxGeometry relative="1" as="geometry" />
        </mxCell>
        <mxCell id="iW3A5-s4BTb5mlIYESg_-39" value="" style="html=1;verticalLabelPosition=bottom;align=center;labelBackgroundColor=#ffffff;verticalAlign=top;strokeWidth=2;strokeColor=#0080F0;shadow=0;dashed=0;shape=mxgraph.ios7.icons.smartphone;fontColor=#fff;fillColor=none;" vertex="1" parent="1">
          <mxGeometry x="960" y="-390" width="18" height="30" as="geometry" />
        </mxCell>
        <mxCell id="iW3A5-s4BTb5mlIYESg_-49" style="edgeStyle=orthogonalEdgeStyle;rounded=0;orthogonalLoop=1;jettySize=auto;html=1;entryX=1;entryY=0.5;entryDx=0;entryDy=0;fontColor=#fff;" edge="1" parent="1" source="iW3A5-s4BTb5mlIYESg_-40" target="iW3A5-s4BTb5mlIYESg_-36">
          <mxGeometry relative="1" as="geometry" />
        </mxCell>
        <mxCell id="iW3A5-s4BTb5mlIYESg_-40" value="" style="html=1;verticalLabelPosition=bottom;align=center;labelBackgroundColor=#ffffff;verticalAlign=top;strokeWidth=2;strokeColor=#0080F0;shadow=0;dashed=0;shape=mxgraph.ios7.icons.smartphone;fontColor=#fff;fillColor=none;" vertex="1" parent="1">
          <mxGeometry x="960" y="-310" width="18" height="30" as="geometry" />
        </mxCell>
        <mxCell id="iW3A5-s4BTb5mlIYESg_-48" style="edgeStyle=orthogonalEdgeStyle;rounded=0;orthogonalLoop=1;jettySize=auto;html=1;entryX=0;entryY=0.75;entryDx=0;entryDy=0;fontColor=#fff;" edge="1" parent="1" source="iW3A5-s4BTb5mlIYESg_-41" target="iW3A5-s4BTb5mlIYESg_-36">
          <mxGeometry relative="1" as="geometry" />
        </mxCell>
        <mxCell id="iW3A5-s4BTb5mlIYESg_-41" value="" style="html=1;verticalLabelPosition=bottom;align=center;labelBackgroundColor=#ffffff;verticalAlign=top;strokeWidth=2;strokeColor=#0080F0;shadow=0;dashed=0;shape=mxgraph.ios7.icons.smartphone;fontColor=#fff;fillColor=none;" vertex="1" parent="1">
          <mxGeometry x="960" y="-221.5" width="18" height="30" as="geometry" />
        </mxCell>
        <mxCell id="iW3A5-s4BTb5mlIYESg_-67" style="edgeStyle=orthogonalEdgeStyle;rounded=0;orthogonalLoop=1;jettySize=auto;html=1;exitX=0.25;exitY=0;exitDx=0;exitDy=0;entryX=-0.006;entryY=0.851;entryDx=0;entryDy=0;entryPerimeter=0;fontColor=#fff;" edge="1" parent="1" source="iW3A5-s4BTb5mlIYESg_-51" target="iW3A5-s4BTb5mlIYESg_-4">
          <mxGeometry relative="1" as="geometry" />
        </mxCell>
        <mxCell id="iW3A5-s4BTb5mlIYESg_-51" value="" style="aspect=fixed;perimeter=ellipsePerimeter;html=1;align=center;shadow=0;dashed=0;spacingTop=3;image;image=img/lib/active_directory/wiring_hub.svg;fontColor=#fff;fillColor=none;" vertex="1" parent="1">
          <mxGeometry x="523.94" y="-284" width="72.06" height="49" as="geometry" />
        </mxCell>
        <mxCell id="iW3A5-s4BTb5mlIYESg_-63" style="edgeStyle=orthogonalEdgeStyle;rounded=0;orthogonalLoop=1;jettySize=auto;html=1;entryX=1;entryY=0.5;entryDx=0;entryDy=0;fontColor=#fff;" edge="1" parent="1" source="iW3A5-s4BTb5mlIYESg_-53" target="iW3A5-s4BTb5mlIYESg_-51">
          <mxGeometry relative="1" as="geometry" />
        </mxCell>
        <mxCell id="iW3A5-s4BTb5mlIYESg_-53" value="" style="points=[];aspect=fixed;html=1;align=center;shadow=0;dashed=0;image;image=img/lib/allied_telesis/computer_and_terminals/Personal_Computer_Wireless.svg;fontColor=#fff;fillColor=none;" vertex="1" parent="1">
          <mxGeometry x="658.5" y="-150" width="63" height="64.2" as="geometry" />
        </mxCell>
        <mxCell id="iW3A5-s4BTb5mlIYESg_-54" value="&lt;font color=&quot;#000000&quot;&gt;Client&amp;nbsp; 6&lt;/font&gt;" style="rounded=0;whiteSpace=wrap;html=1;fontColor=#fff;fillColor=none;" vertex="1" parent="1">
          <mxGeometry x="630" y="-80" width="120" height="35" as="geometry" />
        </mxCell>
        <mxCell id="iW3A5-s4BTb5mlIYESg_-59" style="edgeStyle=orthogonalEdgeStyle;rounded=0;orthogonalLoop=1;jettySize=auto;html=1;entryX=0;entryY=0.5;entryDx=0;entryDy=0;fontColor=#fff;" edge="1" parent="1" source="iW3A5-s4BTb5mlIYESg_-55" target="iW3A5-s4BTb5mlIYESg_-51">
          <mxGeometry relative="1" as="geometry" />
        </mxCell>
        <mxCell id="iW3A5-s4BTb5mlIYESg_-55" value="" style="points=[];aspect=fixed;html=1;align=center;shadow=0;dashed=0;image;image=img/lib/allied_telesis/computer_and_terminals/Personal_Computer_Wireless.svg;fontColor=#fff;fillColor=none;" vertex="1" parent="1">
          <mxGeometry x="300.56" y="-150" width="63" height="64.2" as="geometry" />
        </mxCell>
        <mxCell id="iW3A5-s4BTb5mlIYESg_-56" value="&lt;font color=&quot;#000000&quot;&gt;Client&amp;nbsp; 4&lt;/font&gt;" style="rounded=0;whiteSpace=wrap;html=1;fontColor=#fff;fillColor=none;" vertex="1" parent="1">
          <mxGeometry x="272.06" y="-80" width="120" height="35" as="geometry" />
        </mxCell>
        <mxCell id="iW3A5-s4BTb5mlIYESg_-60" style="edgeStyle=orthogonalEdgeStyle;rounded=0;orthogonalLoop=1;jettySize=auto;html=1;fontColor=#fff;" edge="1" parent="1" source="iW3A5-s4BTb5mlIYESg_-57" target="iW3A5-s4BTb5mlIYESg_-51">
          <mxGeometry relative="1" as="geometry" />
        </mxCell>
        <mxCell id="iW3A5-s4BTb5mlIYESg_-57" value="" style="points=[];aspect=fixed;html=1;align=center;shadow=0;dashed=0;image;image=img/lib/allied_telesis/computer_and_terminals/Personal_Computer_Wireless.svg;fontColor=#fff;fillColor=none;" vertex="1" parent="1">
          <mxGeometry x="488.50000000000006" y="-150" width="63" height="64.2" as="geometry" />
        </mxCell>
        <mxCell id="iW3A5-s4BTb5mlIYESg_-58" value="&lt;font color=&quot;#000000&quot;&gt;Client&amp;nbsp; 5&lt;/font&gt;" style="rounded=0;whiteSpace=wrap;html=1;fontColor=#fff;fillColor=none;" vertex="1" parent="1">
          <mxGeometry x="460.00000000000006" y="-80" width="120" height="35" as="geometry" />
        </mxCell>
        <mxCell id="iW3A5-s4BTb5mlIYESg_-66" style="edgeStyle=orthogonalEdgeStyle;rounded=0;orthogonalLoop=1;jettySize=auto;html=1;entryX=0.5;entryY=0;entryDx=0;entryDy=0;fontColor=#fff;" edge="1" parent="1" source="iW3A5-s4BTb5mlIYESg_-64" target="iW3A5-s4BTb5mlIYESg_-51">
          <mxGeometry relative="1" as="geometry">
            <Array as="points">
              <mxPoint x="730" y="-98" />
              <mxPoint x="730" y="-304" />
              <mxPoint x="560" y="-304" />
            </Array>
          </mxGeometry>
        </mxCell>
        <mxCell id="iW3A5-s4BTb5mlIYESg_-64" value="" style="pointerEvents=1;shadow=0;dashed=0;html=1;strokeColor=none;fillColor=#505050;labelPosition=center;verticalLabelPosition=bottom;verticalAlign=top;outlineConnect=0;align=center;shape=mxgraph.office.devices.printer;fontColor=#fff;" vertex="1" parent="1">
          <mxGeometry x="807" y="-121.4" width="56" height="47" as="geometry" />
        </mxCell>
        <mxCell id="iW3A5-s4BTb5mlIYESg_-65" value="&lt;font color=&quot;#000000&quot;&gt;Shared Printer 3&lt;/font&gt;" style="rounded=0;whiteSpace=wrap;html=1;fontColor=#fff;fillColor=none;" vertex="1" parent="1">
          <mxGeometry x="786" y="-161.4" width="120" height="35" as="geometry" />
        </mxCell>
      </root>
    </mxGraphModel>
  </diagram>
</mxfile>
